<svg width="19" height="19" viewBox="0 0 19 19" fill="none" xmlns="http://www.w3.org/2000/svg">
<g id="Button" clip-path="url(#clip0_10313_21)">
<path id="Vector" d="M0.517578 3.28076C0.634766 3.17529 0.769531 3.12256 0.921875 3.12256C1.07422 3.12256 1.20898 3.17529 1.32617 3.28076L6.95117 8.90576C7.05664 9.02295 7.10938 9.15771 7.10938 9.31006C7.10938 9.4624 7.05664 9.59717 6.95117 9.71436L1.32617 15.3394C1.20898 15.4448 1.07422 15.4976 0.921875 15.4976C0.769531 15.4976 0.634766 15.4448 0.517578 15.3394C0.412109 15.2222 0.359375 15.0874 0.359375 14.9351C0.359375 14.7827 0.412109 14.6479 0.517578 14.5308L5.75586 9.31006L0.517578 4.08936C0.412109 3.97217 0.359375 3.8374 0.359375 3.68506C0.359375 3.53271 0.412109 3.39795 0.517578 3.28076Z" fill="#2EBB77"/>
</g>
<defs>
<clipPath id="clip0_10313_21">
<rect width="18" height="18" fill="white" transform="matrix(1 0 0 -1 0.359375 18.3101)"/>
</clipPath>
</defs>
</svg>
