<svg width="20" height="20" viewBox="0 0 20 20" fill="none" xmlns="http://www.w3.org/2000/svg">
<g id="Link">
<path id="Vector" d="M2.37305 5H14.9902C15.1465 5 15.2962 5.02604 15.4395 5.07812C15.5827 5.13021 15.7129 5.20833 15.8301 5.3125C15.9473 5.41667 16.0417 5.53711 16.1133 5.67383C16.1849 5.81055 16.2272 5.95052 16.2402 6.09375C16.2402 6.10677 16.2402 6.11328 16.2402 6.11328L17.3535 16.1133C17.3665 16.2044 17.3665 16.2923 17.3535 16.377C17.3405 16.4616 17.321 16.543 17.2949 16.6211C17.2689 16.7122 17.2363 16.7936 17.1973 16.8652C17.1582 16.9368 17.1061 17.0052 17.041 17.0703C16.9889 17.1484 16.9271 17.2135 16.8555 17.2656C16.7839 17.3177 16.709 17.3568 16.6309 17.3828C16.5397 17.4219 16.4518 17.4512 16.3672 17.4707C16.2826 17.4902 16.2012 17.5 16.123 17.5H1.24023C1.16211 17.5 1.08073 17.4902 0.996094 17.4707C0.911458 17.4512 0.823568 17.4219 0.732422 17.3828C0.654297 17.3568 0.579427 17.3177 0.507812 17.2656C0.436198 17.2135 0.374349 17.1484 0.322266 17.0703C0.257161 17.0052 0.205078 16.9368 0.166016 16.8652C0.126953 16.7936 0.094401 16.7122 0.0683594 16.6211C0.0423177 16.543 0.0227865 16.4616 0.00976562 16.377C-0.00325521 16.2923 -0.00325521 16.2044 0.00976562 16.1133L1.12305 6.11328C1.12305 6.11328 1.12305 6.10677 1.12305 6.09375C1.13607 5.95052 1.17839 5.81055 1.25 5.67383C1.32161 5.53711 1.41602 5.41667 1.5332 5.3125C1.65039 5.20833 1.7806 5.13021 1.92383 5.07812C2.06706 5.02604 2.2168 5 2.37305 5ZM14.9902 6.25H2.37305L1.25977 16.25H16.1035L14.9902 6.25ZM8.68164 3.125C8.35612 3.125 8.03711 3.18685 7.72461 3.31055C7.41211 3.43425 7.13867 3.61328 6.9043 3.84766C6.66992 4.08203 6.49089 4.35547 6.36719 4.66797C6.24349 4.98047 6.18164 5.29948 6.18164 5.625V8.125C6.18164 8.29427 6.11979 8.44075 5.99609 8.56445C5.8724 8.68815 5.72591 8.75 5.55664 8.75C5.38737 8.75 5.24089 8.68815 5.11719 8.56445C4.99349 8.44075 4.93164 8.29427 4.93164 8.125V5.625C4.93164 5.13021 5.02604 4.65169 5.21484 4.18945C5.40365 3.72721 5.67383 3.32031 6.02539 2.96875C6.37695 2.61719 6.78385 2.347 7.24609 2.1582C7.70833 1.9694 8.18685 1.875 8.68164 1.875C9.17643 1.875 9.65495 1.9694 10.1172 2.1582C10.5794 2.347 10.9863 2.61719 11.3379 2.96875C11.6895 3.32031 11.9596 3.72721 12.1484 4.18945C12.3372 4.65169 12.4316 5.13021 12.4316 5.625V8.125C12.4316 8.29427 12.3698 8.44075 12.2461 8.56445C12.1224 8.68815 11.9759 8.75 11.8066 8.75C11.6374 8.75 11.4909 8.68815 11.3672 8.56445C11.2435 8.44075 11.1816 8.29427 11.1816 8.125V5.625C11.1816 5.29948 11.1198 4.98047 10.9961 4.66797C10.8724 4.35547 10.6934 4.08203 10.459 3.84766C10.2246 3.61328 9.95117 3.43425 9.63867 3.31055C9.32617 3.18685 9.00716 3.125 8.68164 3.125Z" fill="black"/>
</g>
</svg>
