<svg width="20" height="20" viewBox="0 0 20 20" fill="none" xmlns="http://www.w3.org/2000/svg">
<g id="Link" clip-path="url(#clip0_8360_21989)">
<path id="Vector" d="M8.03703 1.48428C8.14119 1.40615 8.25513 1.34756 8.37882 1.3085C8.50252 1.26943 8.62947 1.2499 8.75968 1.2499C8.88989 1.2499 9.01684 1.26943 9.14054 1.3085C9.26424 1.34756 9.37817 1.40615 9.48234 1.48428C9.59953 1.54938 9.69718 1.63402 9.77531 1.73818C9.85343 1.84235 9.91203 1.95303 9.95109 2.07022L11.6698 6.38662C11.6698 6.39964 11.6698 6.40615 11.6698 6.40615C11.6698 6.40615 11.6698 6.40941 11.6698 6.41592C11.6698 6.42243 11.6763 6.42568 11.6894 6.42568L16.2987 6.71865C16.8977 6.75772 17.2818 7.06045 17.4511 7.62686C17.6204 8.19326 17.4836 8.65876 17.0409 9.02334L13.5058 11.9726C13.5058 11.9726 13.5025 11.9758 13.496 11.9823C13.4895 11.9888 13.4862 11.9921 13.4862 11.9921C13.4862 11.9921 13.4862 11.9953 13.4862 12.0019C13.4862 12.0084 13.4862 12.0116 13.4862 12.0116L14.6386 16.5038C14.7688 17.0507 14.606 17.5064 14.1503 17.871C13.6946 18.2356 13.2128 18.2551 12.705 17.9296L8.75968 15.4296L5.08781 17.7538C4.52791 18.1054 3.99731 18.0793 3.49601 17.6757C2.99471 17.272 2.82218 16.7707 2.97843 16.1718L4.03312 12.0116C4.03312 12.0116 4.03312 12.0084 4.03312 12.0019C4.03312 11.9953 4.03312 11.9921 4.03312 11.9921C4.03312 11.9921 4.02986 11.9888 4.02335 11.9823C4.01684 11.9758 4.01359 11.9726 4.01359 11.9726L0.478433 9.02334C0.0357242 8.65876 -0.100995 8.19326 0.0682763 7.62686C0.237547 7.06045 0.621662 6.75772 1.22062 6.71865L5.82999 6.42568C5.84302 6.42568 5.84953 6.42243 5.84953 6.41592C5.84953 6.40941 5.84953 6.40615 5.84953 6.40615C5.84953 6.40615 5.84953 6.39964 5.84953 6.38662L7.56828 2.07022C7.60734 1.95303 7.66593 1.84235 7.74406 1.73818C7.82218 1.63402 7.91984 1.54938 8.03703 1.48428ZM9.44328 14.3749L13.3691 16.8749C13.3821 16.8749 13.3886 16.8749 13.3886 16.8749C13.3886 16.8749 13.3951 16.8749 13.4081 16.8749C13.4081 16.8619 13.4114 16.8554 13.4179 16.8554C13.4244 16.8554 13.4277 16.8489 13.4277 16.8358C13.4277 16.8358 13.4277 16.8326 13.4277 16.8261C13.4277 16.8196 13.4277 16.8163 13.4277 16.8163L12.2753 12.3241C12.2493 12.2069 12.2395 12.0865 12.246 11.9628C12.2525 11.8391 12.2753 11.7187 12.3144 11.6015C12.3404 11.4843 12.3892 11.3736 12.4609 11.2694C12.5325 11.1653 12.6138 11.0741 12.705 10.996L16.2402 8.06631C16.2402 8.05329 16.2434 8.04678 16.2499 8.04678C16.2564 8.04678 16.2597 8.04678 16.2597 8.04678C16.2597 8.04678 16.2597 8.04027 16.2597 8.02725C16.2597 8.02725 16.2597 8.02399 16.2597 8.01748C16.2597 8.01097 16.2597 8.0012 16.2597 7.98818C16.2597 7.98818 16.2564 7.98493 16.2499 7.97842C16.2434 7.97191 16.2402 7.96865 16.2402 7.96865C16.2402 7.96865 16.2336 7.96865 16.2206 7.96865L11.6308 7.67568C11.6308 7.67568 11.6275 7.67568 11.621 7.67568C11.6145 7.67568 11.6112 7.67568 11.6112 7.67568C11.4941 7.66266 11.3769 7.63662 11.2597 7.59756C11.1425 7.5585 11.0383 7.4999 10.9472 7.42178C10.843 7.34365 10.7551 7.25902 10.6835 7.16787C10.6119 7.07673 10.55 6.97256 10.498 6.85537L8.77921 2.51943C8.77921 2.50641 8.77921 2.4999 8.77921 2.4999C8.77921 2.4999 8.77596 2.4999 8.76945 2.4999C8.76294 2.4999 8.75968 2.4999 8.75968 2.4999C8.75968 2.4999 8.75643 2.4999 8.74992 2.4999C8.74341 2.4999 8.74015 2.4999 8.74015 2.4999C8.74015 2.4999 8.74015 2.50641 8.74015 2.51943L7.0214 6.85537C6.96932 6.97256 6.90747 7.07673 6.83585 7.16787C6.76424 7.25902 6.67635 7.34365 6.57218 7.42178C6.48104 7.4999 6.37687 7.5585 6.25968 7.59756C6.14249 7.63662 6.02531 7.66266 5.90812 7.67568L1.29874 7.96865C1.28572 7.96865 1.27921 7.96865 1.27921 7.96865C1.27921 7.96865 1.27596 7.97191 1.26945 7.97842C1.26294 7.98493 1.25968 7.98818 1.25968 7.98818C1.25968 8.0012 1.25968 8.01097 1.25968 8.01748C1.25968 8.02399 1.25968 8.02725 1.25968 8.02725C1.25968 8.04027 1.25968 8.04678 1.25968 8.04678C1.25968 8.04678 1.26294 8.04678 1.26945 8.04678C1.27596 8.04678 1.27921 8.05329 1.27921 8.06631L4.81437 10.996C4.90552 11.0741 4.9869 11.1653 5.05851 11.2694C5.13013 11.3736 5.17895 11.4843 5.20499 11.6015C5.24406 11.7187 5.26684 11.8391 5.27335 11.9628C5.27986 12.0865 5.2701 12.2069 5.24406 12.3241L4.18937 16.4843C4.17635 16.5233 4.17635 16.5624 4.18937 16.6015C4.20239 16.6405 4.22192 16.6666 4.24796 16.6796C4.26098 16.6926 4.27401 16.7024 4.28703 16.7089C4.30005 16.7154 4.31307 16.7187 4.32609 16.7187C4.33911 16.7187 4.35213 16.7187 4.36515 16.7187C4.37817 16.7187 4.3977 16.7121 4.42375 16.6991L8.07609 14.3749C8.18025 14.3098 8.29093 14.261 8.40812 14.2284C8.52531 14.1959 8.6425 14.1796 8.75968 14.1796C8.87687 14.1796 8.99406 14.1959 9.11125 14.2284C9.22843 14.261 9.33911 14.3098 9.44328 14.3749Z" fill="black"/>
</g>
<defs>
<clipPath id="clip0_8360_21989">
<rect width="20" height="20" fill="white" transform="matrix(1 0 0 -1 0 20)"/>
</clipPath>
</defs>
</svg>
