<svg width="17" height="17" viewBox="0 0 17 17" fill="none" xmlns="http://www.w3.org/2000/svg">
<g id="Icon" clip-path="url(#clip0_8360_22045)">
<path id="Vector" d="M0.419922 8.63989C0.419922 8.50448 0.469401 8.38729 0.568359 8.28833C0.667318 8.18937 0.784505 8.13989 0.919922 8.13989H11.9199C12.0553 8.13989 12.1725 8.18937 12.2715 8.28833C12.3704 8.38729 12.4199 8.50448 12.4199 8.63989C12.4199 8.77531 12.3704 8.8925 12.2715 8.99146C12.1725 9.09041 12.0553 9.13989 11.9199 9.13989H0.919922C0.784505 9.13989 0.667318 9.09041 0.568359 8.99146C0.469401 8.8925 0.419922 8.77531 0.419922 8.63989ZM7.06055 3.78052C7.16471 3.68677 7.28451 3.63989 7.41992 3.63989C7.55534 3.63989 7.67513 3.68677 7.7793 3.78052L12.2793 8.28052C12.373 8.38468 12.4199 8.50448 12.4199 8.63989C12.4199 8.77531 12.373 8.8951 12.2793 8.99927L7.7793 13.4993C7.67513 13.593 7.55534 13.6399 7.41992 13.6399C7.28451 13.6399 7.16471 13.593 7.06055 13.4993C6.9668 13.3951 6.91992 13.2753 6.91992 13.1399C6.91992 13.0045 6.9668 12.8847 7.06055 12.7805L11.2168 8.63989L7.06055 4.49927C6.9668 4.3951 6.91992 4.27531 6.91992 4.13989C6.91992 4.00448 6.9668 3.88468 7.06055 3.78052Z" fill="white"/>
</g>
<defs>
<clipPath id="clip0_8360_22045">
<rect width="16" height="16" fill="white" transform="matrix(1 0 0 -1 0.419922 16.6399)"/>
</clipPath>
</defs>
</svg>
