<svg width="19" height="19" viewBox="0 0 19 19" fill="none" xmlns="http://www.w3.org/2000/svg">
<g id="Button" clip-path="url(#clip0_8360_22316)">
<path id="Vector" d="M0.4375 3.94067C0.554688 3.83521 0.689453 3.78247 0.841797 3.78247C0.994141 3.78247 1.12891 3.83521 1.24609 3.94067L6.87109 9.56567C6.97656 9.68286 7.0293 9.81763 7.0293 9.96997C7.0293 10.1223 6.97656 10.2571 6.87109 10.3743L1.24609 15.9993C1.12891 16.1047 0.994141 16.1575 0.841797 16.1575C0.689453 16.1575 0.554688 16.1047 0.4375 15.9993C0.332031 15.8821 0.279297 15.7473 0.279297 15.595C0.279297 15.4426 0.332031 15.3079 0.4375 15.1907L5.67578 9.96997L0.4375 4.74927C0.332031 4.63208 0.279297 4.49731 0.279297 4.34497C0.279297 4.19263 0.332031 4.05786 0.4375 3.94067Z" fill="#2EBB77"/>
</g>
<defs>
<clipPath id="clip0_8360_22316">
<rect width="18" height="18" fill="white" transform="matrix(1 0 0 -1 0.279297 18.97)"/>
</clipPath>
</defs>
</svg>
