<svg width="21" height="21" viewBox="0 0 21 21" fill="none" xmlns="http://www.w3.org/2000/svg">
<g id="Link" clip-path="url(#clip0_8360_22457)">
<path id="Vector" d="M8.69718 1.98428C8.80135 1.90615 8.91528 1.84756 9.03898 1.8085C9.16268 1.76943 9.28963 1.7499 9.41984 1.7499C9.55005 1.7499 9.677 1.76943 9.8007 1.8085C9.9244 1.84756 10.0383 1.90615 10.1425 1.98428C10.2597 2.04938 10.3573 2.13402 10.4355 2.23818C10.5136 2.34235 10.5722 2.45303 10.6112 2.57022L12.33 6.88662C12.33 6.89964 12.33 6.90615 12.33 6.90615C12.33 6.90615 12.33 6.90941 12.33 6.91592C12.33 6.92243 12.3365 6.92568 12.3495 6.92568L16.9589 7.21865C17.5579 7.25772 17.942 7.56045 18.1112 8.12686C18.2805 8.69326 18.1438 9.15876 17.7011 9.52334L14.1659 12.4726C14.1659 12.4726 14.1627 12.4758 14.1562 12.4823C14.1497 12.4888 14.1464 12.4921 14.1464 12.4921C14.1464 12.4921 14.1464 12.4953 14.1464 12.5019C14.1464 12.5084 14.1464 12.5116 14.1464 12.5116L15.2987 17.0038C15.429 17.5507 15.2662 18.0064 14.8105 18.371C14.3547 18.7356 13.873 18.7551 13.3652 18.4296L9.41984 15.9296L5.74796 18.2538C5.18807 18.6054 4.65747 18.5793 4.15617 18.1757C3.65486 17.772 3.48234 17.2707 3.63859 16.6718L4.69328 12.5116C4.69328 12.5116 4.69328 12.5084 4.69328 12.5019C4.69328 12.4953 4.69328 12.4921 4.69328 12.4921C4.69328 12.4921 4.69002 12.4888 4.68351 12.4823C4.677 12.4758 4.67375 12.4726 4.67375 12.4726L1.13859 9.52334C0.69588 9.15876 0.559162 8.69326 0.728433 8.12686C0.897703 7.56045 1.28182 7.25772 1.88078 7.21865L6.49015 6.92568C6.50317 6.92568 6.50968 6.92243 6.50968 6.91592C6.50968 6.90941 6.50968 6.90615 6.50968 6.90615C6.50968 6.90615 6.50968 6.89964 6.50968 6.88662L8.22843 2.57022C8.26749 2.45303 8.32609 2.34235 8.40421 2.23818C8.48234 2.13402 8.57999 2.04938 8.69718 1.98428ZM10.1034 14.8749L14.0292 17.3749C14.0422 17.3749 14.0487 17.3749 14.0487 17.3749C14.0487 17.3749 14.0553 17.3749 14.0683 17.3749C14.0683 17.3619 14.0715 17.3554 14.078 17.3554C14.0846 17.3554 14.0878 17.3489 14.0878 17.3358C14.0878 17.3358 14.0878 17.3326 14.0878 17.3261C14.0878 17.3196 14.0878 17.3163 14.0878 17.3163L12.9355 12.8241C12.9094 12.7069 12.8997 12.5865 12.9062 12.4628C12.9127 12.3391 12.9355 12.2187 12.9745 12.1015C13.0006 11.9843 13.0494 11.8736 13.121 11.7694C13.1926 11.6653 13.274 11.5741 13.3652 11.496L16.9003 8.56631C16.9003 8.55329 16.9036 8.54678 16.9101 8.54678C16.9166 8.54678 16.9198 8.54678 16.9198 8.54678C16.9198 8.54678 16.9198 8.54027 16.9198 8.52725C16.9198 8.52725 16.9198 8.52399 16.9198 8.51748C16.9198 8.51097 16.9198 8.5012 16.9198 8.48818C16.9198 8.48818 16.9166 8.48493 16.9101 8.47842C16.9036 8.47191 16.9003 8.46865 16.9003 8.46865C16.9003 8.46865 16.8938 8.46865 16.8808 8.46865L12.2909 8.17568C12.2909 8.17568 12.2877 8.17568 12.2812 8.17568C12.2747 8.17568 12.2714 8.17568 12.2714 8.17568C12.1542 8.16266 12.037 8.13662 11.9198 8.09756C11.8027 8.0585 11.6985 7.9999 11.6073 7.92178C11.5032 7.84365 11.4153 7.75902 11.3437 7.66787C11.2721 7.57673 11.2102 7.47256 11.1581 7.35537L9.43937 3.01943C9.43937 3.00641 9.43937 2.9999 9.43937 2.9999C9.43937 2.9999 9.43611 2.9999 9.4296 2.9999C9.42309 2.9999 9.41984 2.9999 9.41984 2.9999C9.41984 2.9999 9.41658 2.9999 9.41007 2.9999C9.40356 2.9999 9.40031 2.9999 9.40031 2.9999C9.40031 2.9999 9.40031 3.00641 9.40031 3.01943L7.68156 7.35537C7.62947 7.47256 7.56763 7.57673 7.49601 7.66787C7.4244 7.75902 7.33651 7.84365 7.23234 7.92178C7.14119 7.9999 7.03703 8.0585 6.91984 8.09756C6.80265 8.13662 6.68546 8.16266 6.56828 8.17568L1.9589 8.46865C1.94588 8.46865 1.93937 8.46865 1.93937 8.46865C1.93937 8.46865 1.93611 8.47191 1.9296 8.47842C1.92309 8.48493 1.91984 8.48818 1.91984 8.48818C1.91984 8.5012 1.91984 8.51097 1.91984 8.51748C1.91984 8.52399 1.91984 8.52725 1.91984 8.52725C1.91984 8.54027 1.91984 8.54678 1.91984 8.54678C1.91984 8.54678 1.92309 8.54678 1.9296 8.54678C1.93611 8.54678 1.93937 8.55329 1.93937 8.56631L5.47453 11.496C5.56567 11.5741 5.64705 11.6653 5.71867 11.7694C5.79028 11.8736 5.83911 11.9843 5.86515 12.1015C5.90421 12.2187 5.927 12.3391 5.93351 12.4628C5.94002 12.5865 5.93026 12.7069 5.90421 12.8241L4.84953 16.9843C4.83651 17.0233 4.83651 17.0624 4.84953 17.1015C4.86255 17.1405 4.88208 17.1666 4.90812 17.1796C4.92114 17.1926 4.93416 17.2024 4.94718 17.2089C4.9602 17.2154 4.97322 17.2187 4.98625 17.2187C4.99927 17.2187 5.01229 17.2187 5.02531 17.2187C5.03833 17.2187 5.05786 17.2121 5.0839 17.1991L8.73625 14.8749C8.84041 14.8098 8.95109 14.761 9.06828 14.7284C9.18546 14.6959 9.30265 14.6796 9.41984 14.6796C9.53703 14.6796 9.65421 14.6959 9.7714 14.7284C9.88859 14.761 9.99927 14.8098 10.1034 14.8749Z" fill="black"/>
</g>
<defs>
<clipPath id="clip0_8360_22457">
<rect width="20" height="20" fill="white" transform="matrix(1 0 0 -1 0.660156 20.5)"/>
</clipPath>
</defs>
</svg>
