<svg width="25" height="49" viewBox="0 0 25 49" fill="none" xmlns="http://www.w3.org/2000/svg">
<g id="Main &#226;&#134;&#146; Form &#226;&#134;&#146; Link" clip-path="url(#clip0_10313_720)">
<path id="Vector" d="M12.2305 25.291C12.3867 25.1504 12.5664 25.0801 12.7695 25.0801C12.9727 25.0801 13.1523 25.1504 13.3086 25.291L16.3086 28.291C16.4492 28.4473 16.5195 28.627 16.5195 28.8301C16.5195 29.0332 16.4492 29.2129 16.3086 29.3691L13.3086 32.3691C13.1523 32.5098 12.9727 32.5801 12.7695 32.5801C12.5664 32.5801 12.3867 32.5098 12.2305 32.3691C12.0898 32.2129 12.0195 32.0332 12.0195 31.8301C12.0195 31.627 12.0898 31.4473 12.2305 31.291L14.7148 28.8301L12.2305 26.3691C12.0898 26.2129 12.0195 26.0332 12.0195 25.8301C12.0195 25.627 12.0898 25.4473 12.2305 25.291ZM0.0195312 28.8301C0.0195312 28.627 0.09375 28.4512 0.242188 28.3027C0.390625 28.1543 0.566406 28.0801 0.769531 28.0801H15.7695C15.9727 28.0801 16.1484 28.1543 16.2969 28.3027C16.4453 28.4512 16.5195 28.627 16.5195 28.8301C16.5195 29.0332 16.4453 29.209 16.2969 29.3574C16.1484 29.5059 15.9727 29.5801 15.7695 29.5801H0.769531C0.566406 29.5801 0.390625 29.5059 0.242188 29.3574C0.09375 29.209 0.0195312 29.0332 0.0195312 28.8301ZM4.30859 16.291C4.44922 16.4473 4.51953 16.627 4.51953 16.8301C4.51953 17.0332 4.44922 17.2129 4.30859 17.3691L1.82422 19.8301L4.30859 22.291C4.44922 22.4473 4.51953 22.627 4.51953 22.8301C4.51953 23.0332 4.44922 23.2129 4.30859 23.3691C4.15234 23.5098 3.97266 23.5801 3.76953 23.5801C3.56641 23.5801 3.38672 23.5098 3.23047 23.3691L0.230469 20.3691C0.0898438 20.2129 0.0195312 20.0332 0.0195312 19.8301C0.0195312 19.627 0.0898438 19.4473 0.230469 19.291L3.23047 16.291C3.38672 16.1504 3.56641 16.0801 3.76953 16.0801C3.97266 16.0801 4.15234 16.1504 4.30859 16.291ZM0.0195312 19.8301C0.0195312 19.627 0.09375 19.4512 0.242188 19.3027C0.390625 19.1543 0.566406 19.0801 0.769531 19.0801H15.7695C15.9727 19.0801 16.1484 19.1543 16.2969 19.3027C16.4453 19.4512 16.5195 19.627 16.5195 19.8301C16.5195 20.0332 16.4453 20.209 16.2969 20.3574C16.1484 20.5059 15.9727 20.5801 15.7695 20.5801H0.769531C0.566406 20.5801 0.390625 20.5059 0.242188 20.3574C0.09375 20.209 0.0195312 20.0332 0.0195312 19.8301Z" fill="black"/>
</g>
<defs>
<clipPath id="clip0_10313_720">
<rect width="24" height="48" fill="white" transform="matrix(1 0 0 -1 0.0195312 48.3301)"/>
</clipPath>
</defs>
</svg>
