<svg width="33" height="33" viewBox="0 0 33 33" fill="none" xmlns="http://www.w3.org/2000/svg">
<g id="Icon" clip-path="url(#clip0_8360_23721)">
<path id="Vector" d="M23.2188 8.4812C23.4062 8.68953 23.5 8.92912 23.5 9.19995C23.5 9.47078 23.4062 9.71037 23.2188 9.9187L9.21875 23.9187C9.01042 24.1062 8.77083 24.2 8.5 24.2C8.22917 24.2 7.98958 24.1062 7.78125 23.9187L0.78125 16.9187C0.59375 16.7104 0.5 16.4708 0.5 16.2C0.5 15.9291 0.59375 15.6895 0.78125 15.4812C0.989583 15.2937 1.22917 15.2 1.5 15.2C1.77083 15.2 2.01042 15.2937 2.21875 15.4812L8.5 21.7937L21.7812 8.4812C21.9896 8.2937 22.2292 8.19995 22.5 8.19995C22.7708 8.19995 23.0104 8.2937 23.2188 8.4812Z" fill="#11B196"/>
</g>
<defs>
<clipPath id="clip0_8360_23721">
<rect width="32" height="32" fill="white" transform="matrix(1 0 0 -1 0.5 32.2)"/>
</clipPath>
</defs>
</svg>
