<svg width="18" height="18" viewBox="0 0 18 18" fill="none" xmlns="http://www.w3.org/2000/svg">
<g id="Icon">
<path id="Vector" d="M5.7832 5.2207C5.90039 5.11523 6.03516 5.0625 6.1875 5.0625C6.33984 5.0625 6.47461 5.11523 6.5918 5.2207L12.2168 10.8457C12.3223 10.9629 12.375 11.0977 12.375 11.25C12.375 11.4023 12.3223 11.5371 12.2168 11.6543C12.0996 11.7598 11.9648 11.8125 11.8125 11.8125C11.6602 11.8125 11.5254 11.7598 11.4082 11.6543L6.1875 6.41602L0.966797 11.6543C0.849609 11.7598 0.714844 11.8125 0.5625 11.8125C0.410156 11.8125 0.275391 11.7598 0.158203 11.6543C0.0527344 11.5371 0 11.4023 0 11.25C0 11.0977 0.0527344 10.9629 0.158203 10.8457L5.7832 5.2207Z" fill="white"/>
</g>
</svg>
