<svg width="65" height="64" viewBox="0 0 65 64" fill="none" xmlns="http://www.w3.org/2000/svg">
<g opacity="0.3" clip-path="url(#clip0_8360_22872)">
<path d="M55.9414 25.095C56.0247 24.7616 56.0872 24.4179 56.1289 24.0637C56.1706 23.7096 56.1914 23.345 56.1914 22.97C56.1914 20.22 55.2122 17.8658 53.2539 15.9075C51.2956 13.9491 48.9414 12.97 46.1914 12.97C45.7331 12.97 45.2956 13.0012 44.8789 13.0637C44.4622 13.1262 44.0456 13.1991 43.6289 13.2825C42.8372 10.8658 41.3997 8.87622 39.3164 7.31372C37.2331 5.75122 34.8581 4.96997 32.1914 4.96997C29.4414 4.96997 27.0143 5.78247 24.9102 7.40747C22.806 9.03247 21.3997 11.095 20.6914 13.595C19.9831 13.3866 19.2539 13.2304 18.5039 13.1262C17.7539 13.0221 16.9831 12.97 16.1914 12.97C13.9831 12.97 11.8997 13.3866 9.94141 14.22C8.02474 15.0533 6.33724 16.1991 4.87891 17.6575C3.42057 19.1158 2.27474 20.8033 1.44141 22.72C0.608073 24.6783 0.191406 26.7616 0.191406 28.97C0.191406 31.1783 0.608073 33.2616 1.44141 35.22C2.27474 37.1366 3.42057 38.8241 4.87891 40.2825C6.33724 41.7408 8.02474 42.8866 9.94141 43.72C11.8997 44.5533 13.9831 44.97 16.1914 44.97H24.1914V56.97H40.1914V44.97H54.1914C56.9414 44.97 59.2956 43.9908 61.2539 42.0325C63.2122 40.0741 64.1914 37.72 64.1914 34.97C64.1914 32.5116 63.3997 30.3658 61.8164 28.5325C60.2331 26.6991 58.2747 25.5533 55.9414 25.095ZM36.1914 40.97V52.97H28.1914V40.97H18.1914L32.1914 26.97L46.1914 40.97H36.1914Z" fill="#7E7E7E"/>
</g>
<defs>
<clipPath id="clip0_8360_22872">
<rect width="64" height="64" fill="white" transform="matrix(1 0 0 -1 0.191406 64.97)"/>
</clipPath>
</defs>
</svg>
