<svg width="33" height="33" viewBox="0 0 33 33" fill="none" xmlns="http://www.w3.org/2000/svg">
<g id="Icon" clip-path="url(#clip0_8360_22035)">
<path id="Vector" d="M23.2188 9.26123C23.4062 9.46956 23.5 9.70915 23.5 9.97998C23.5 10.2508 23.4062 10.4904 23.2188 10.6987L9.21875 24.6987C9.01042 24.8862 8.77083 24.98 8.5 24.98C8.22917 24.98 7.98958 24.8862 7.78125 24.6987L0.78125 17.6987C0.59375 17.4904 0.5 17.2508 0.5 16.98C0.5 16.7091 0.59375 16.4696 0.78125 16.2612C0.989583 16.0737 1.22917 15.98 1.5 15.98C1.77083 15.98 2.01042 16.0737 2.21875 16.2612L8.5 22.5737L21.7812 9.26123C21.9896 9.07373 22.2292 8.97998 22.5 8.97998C22.7708 8.97998 23.0104 9.07373 23.2188 9.26123Z" fill="#11B196"/>
</g>
<defs>
<clipPath id="clip0_8360_22035">
<rect width="32" height="32" fill="white" transform="matrix(1 0 0 -1 0.5 32.98)"/>
</clipPath>
</defs>
</svg>
