<svg width="32" height="33" viewBox="0 0 32 33" fill="none" xmlns="http://www.w3.org/2000/svg">
<g id="Icon">
<path id="Vector" d="M22.7188 9.06128C22.9062 9.26961 23 9.5092 23 9.78003C23 10.0509 22.9062 10.2904 22.7188 10.4988L8.71875 24.4988C8.51042 24.6863 8.27083 24.78 8 24.78C7.72917 24.78 7.48958 24.6863 7.28125 24.4988L0.28125 17.4988C0.09375 17.2904 0 17.0509 0 16.78C0 16.5092 0.09375 16.2696 0.28125 16.0613C0.489583 15.8738 0.729167 15.78 1 15.78C1.27083 15.78 1.51042 15.8738 1.71875 16.0613L8 22.3738L21.2812 9.06128C21.4896 8.87378 21.7292 8.78003 22 8.78003C22.2708 8.78003 22.5104 8.87378 22.7188 9.06128Z" fill="#11B196"/>
</g>
</svg>
