<svg width="19" height="19" viewBox="0 0 19 19" fill="none" xmlns="http://www.w3.org/2000/svg">
<g id="Icon" clip-path="url(#clip0_8360_22350)">
<path id="Vector" d="M0.130859 9.71997C0.130859 9.56763 0.186523 9.43579 0.297852 9.32446C0.40918 9.21313 0.541016 9.15747 0.693359 9.15747H13.0684C13.2207 9.15747 13.3525 9.21313 13.4639 9.32446C13.5752 9.43579 13.6309 9.56763 13.6309 9.71997C13.6309 9.87231 13.5752 10.0042 13.4639 10.1155C13.3525 10.2268 13.2207 10.2825 13.0684 10.2825H0.693359C0.541016 10.2825 0.40918 10.2268 0.297852 10.1155C0.186523 10.0042 0.130859 9.87231 0.130859 9.71997ZM7.60156 4.25317C7.71875 4.14771 7.85352 4.09497 8.00586 4.09497C8.1582 4.09497 8.29297 4.14771 8.41016 4.25317L13.4727 9.31567C13.5781 9.43286 13.6309 9.56763 13.6309 9.71997C13.6309 9.87231 13.5781 10.0071 13.4727 10.1243L8.41016 15.1868C8.29297 15.2922 8.1582 15.345 8.00586 15.345C7.85352 15.345 7.71875 15.2922 7.60156 15.1868C7.49609 15.0696 7.44336 14.9348 7.44336 14.7825C7.44336 14.6301 7.49609 14.4954 7.60156 14.3782L12.2773 9.71997L7.60156 5.06177C7.49609 4.94458 7.44336 4.80981 7.44336 4.65747C7.44336 4.50513 7.49609 4.37036 7.60156 4.25317Z" fill="black"/>
</g>
<defs>
<clipPath id="clip0_8360_22350">
<rect width="18" height="18" fill="white" transform="matrix(1 0 0 -1 0.130859 18.72)"/>
</clipPath>
</defs>
</svg>
