<svg width="25" height="26" viewBox="0 0 25 26" fill="none" xmlns="http://www.w3.org/2000/svg">
<g id="Heading 2" clip-path="url(#clip0_10313_375)">
<path id="Vector" d="M18.0288 4.34657H1.5024C1.29895 4.34657 1.10724 4.38569 0.927265 4.46394C0.747289 4.54219 0.586877 4.65174 0.446026 4.79259C0.305176 4.93344 0.195625 5.09386 0.117375 5.27383C0.0391251 5.45381 0 5.64552 0 5.84897V17.8682C0 18.0717 0.0391251 18.2634 0.117375 18.4433C0.195625 18.6233 0.305176 18.7837 0.446026 18.9246C0.586877 19.0654 0.747289 19.175 0.927265 19.2532C1.10724 19.3315 1.29895 19.3706 1.5024 19.3706H7.08947L8.4745 21.6946C8.5371 21.8042 8.61535 21.902 8.70925 21.9881C8.80315 22.0741 8.9127 22.1485 9.0379 22.2111C9.14745 22.2893 9.26482 22.3441 9.39002 22.3754C9.51522 22.4067 9.64042 22.4224 9.76562 22.4224C9.89083 22.4224 10.016 22.4067 10.1412 22.3754C10.2664 22.3441 10.3838 22.2893 10.4934 22.2111C10.6186 22.1485 10.7281 22.0741 10.822 21.9881C10.9159 21.902 10.9942 21.8042 11.0568 21.6946L12.4418 19.3706H18.0288C18.2323 19.3706 18.424 19.3315 18.604 19.2532C18.784 19.175 18.9444 19.0654 19.0852 18.9246C19.2261 18.7837 19.3356 18.6233 19.4139 18.4433C19.4921 18.2634 19.5312 18.0717 19.5312 17.8682V5.84897C19.5312 5.64552 19.4921 5.45381 19.4139 5.27383C19.3356 5.09386 19.2261 4.93344 19.0852 4.79259C18.9444 4.65174 18.784 4.54219 18.604 4.46394C18.424 4.38569 18.2323 4.34657 18.0288 4.34657ZM12.7704 14.1122H6.76082C6.66692 14.1122 6.57302 14.0926 6.47912 14.0535C6.38522 14.0144 6.29914 13.9635 6.22089 13.9009C6.15829 13.8227 6.10743 13.7366 6.0683 13.6427C6.02918 13.5488 6.00962 13.4549 6.00962 13.361C6.00962 13.2671 6.02918 13.1732 6.0683 13.0793C6.10743 12.9854 6.15829 12.8993 6.22089 12.8211C6.29914 12.7585 6.38522 12.7076 6.47912 12.6685C6.57302 12.6294 6.66692 12.6098 6.76082 12.6098H12.7704C12.8643 12.6098 12.9582 12.6294 13.0521 12.6685C13.146 12.7076 13.2321 12.7585 13.3104 12.8211C13.373 12.8993 13.4238 12.9854 13.4629 13.0793C13.5021 13.1732 13.5216 13.2671 13.5216 13.361C13.5216 13.4549 13.5021 13.5488 13.4629 13.6427C13.4238 13.7366 13.373 13.8227 13.3104 13.9009C13.2321 13.9635 13.146 14.0144 13.0521 14.0535C12.9582 14.0926 12.8643 14.1122 12.7704 14.1122ZM12.7704 11.1074H6.76082C6.66692 11.1074 6.57302 11.0878 6.47912 11.0487C6.38522 11.0096 6.29914 10.9587 6.22089 10.8961C6.15829 10.8179 6.10743 10.7318 6.0683 10.6379C6.02918 10.544 6.00962 10.4501 6.00962 10.3562C6.00962 10.2623 6.02918 10.1684 6.0683 10.0745C6.10743 9.98058 6.15829 9.89451 6.22089 9.81626C6.29914 9.75366 6.38522 9.70279 6.47912 9.66367C6.57302 9.62454 6.66692 9.60498 6.76082 9.60498H12.7704C12.8643 9.60498 12.9582 9.62454 13.0521 9.66367C13.146 9.70279 13.2321 9.75366 13.3104 9.81626C13.373 9.89451 13.4238 9.98058 13.4629 10.0745C13.5021 10.1684 13.5216 10.2623 13.5216 10.3562C13.5216 10.4501 13.5021 10.544 13.4629 10.6379C13.4238 10.7318 13.373 10.8179 13.3104 10.8961C13.2321 10.9587 13.146 11.0096 13.0521 11.0487C12.9582 11.0878 12.8643 11.1074 12.7704 11.1074Z" fill="#2EBB77"/>
</g>
<defs>
<clipPath id="clip0_10313_375">
<rect width="25" height="25" fill="white" transform="matrix(1 0 0 -1 0 25.1099)"/>
</clipPath>
</defs>
</svg>
