<svg width="26" height="26" viewBox="0 0 26 26" fill="none" xmlns="http://www.w3.org/2000/svg">
<g id="elemnts" clip-path="url(#clip0_10313_408)">
<path id="Vector" d="M9.81641 3.18433C8.8461 3.18433 7.89928 3.32518 6.97592 3.60688C6.05257 3.88858 5.19182 4.29548 4.39367 4.82758C3.59552 5.35968 2.88735 6.00133 2.26917 6.75253C1.651 7.50374 1.16193 8.32536 0.801983 9.21742C0.426382 10.1095 0.191632 11.0367 0.0977314 11.9992C0.00383113 12.9617 0.0507812 13.9124 0.238582 14.8514C0.426382 15.8061 0.747208 16.7099 1.20106 17.5628C1.65491 18.4157 2.22614 19.1787 2.91474 19.8516C3.58769 20.5402 4.35063 21.1114 5.20356 21.5653C6.05648 22.0191 6.96027 22.34 7.91493 22.5278C8.85393 22.7156 9.80467 22.7625 10.7671 22.6686C11.7296 22.5747 12.6569 22.34 13.5489 21.9644C14.441 21.6044 15.2626 21.1154 16.0138 20.4972C16.765 19.879 17.4067 19.1708 17.9388 18.3727C18.4709 17.5745 18.8778 16.7138 19.1595 15.7904C19.4412 14.8671 19.582 13.9203 19.582 12.95C19.582 12.3083 19.5194 11.6666 19.3942 11.025C19.269 10.399 19.0851 9.79256 18.8426 9.20568C18.6 8.6188 18.2987 8.05931 17.9388 7.52721C17.5788 6.99511 17.1719 6.50213 16.7181 6.04828C16.2642 5.59443 15.7712 5.18753 15.2391 4.82758C14.707 4.46763 14.1476 4.16637 13.5607 3.92379C12.9738 3.68122 12.3674 3.49733 11.7414 3.37213C11.0997 3.24693 10.4581 3.18433 9.81641 3.18433ZM9.81641 18.9596C9.70686 18.9596 9.59731 18.9439 9.48776 18.9126C9.37821 18.8813 9.27648 18.8344 9.18258 18.7718C9.08868 18.7092 9.00652 18.6348 8.93609 18.5488C8.86567 18.4627 8.8148 18.3649 8.7835 18.2553C8.73655 18.1614 8.70917 18.0597 8.70134 17.9501C8.69352 17.8406 8.69743 17.731 8.71308 17.6215C8.72873 17.5119 8.76394 17.4063 8.81872 17.3046C8.87349 17.2028 8.94 17.1129 9.01825 17.0346C9.0965 16.9564 9.18649 16.8898 9.28822 16.8351C9.38994 16.7803 9.49558 16.7451 9.60513 16.7294C9.71468 16.7138 9.82423 16.7099 9.93378 16.7177C10.0433 16.7255 10.1451 16.7529 10.239 16.7999C10.3485 16.8312 10.4463 16.882 10.5324 16.9524C10.6185 17.0229 10.6928 17.105 10.7554 17.1989C10.818 17.2928 10.865 17.3946 10.8963 17.5041C10.9276 17.6137 10.9432 17.7232 10.9432 17.8328C10.9432 17.9893 10.9158 18.134 10.861 18.2671C10.8063 18.4001 10.7241 18.5214 10.6146 18.6309C10.505 18.7405 10.3837 18.8226 10.2507 18.8774C10.1177 18.9322 9.97291 18.9596 9.81641 18.9596ZM10.5676 14.3585V14.4524C10.5676 14.5463 10.548 14.6402 10.5089 14.7341C10.4698 14.828 10.4189 14.914 10.3563 14.9923C10.2781 15.0549 10.192 15.1057 10.0981 15.1449C10.0042 15.184 9.91031 15.2036 9.81641 15.2036C9.72251 15.2036 9.62861 15.184 9.53471 15.1449C9.44081 15.1057 9.35473 15.0549 9.27648 14.9923C9.21388 14.914 9.16302 14.828 9.12389 14.7341C9.08477 14.6402 9.0652 14.5463 9.0652 14.4524V13.7012C9.0652 13.6073 9.08477 13.5134 9.12389 13.4195C9.16302 13.3256 9.21388 13.2395 9.27648 13.1612C9.35473 13.0986 9.44081 13.0478 9.53471 13.0086C9.62861 12.9695 9.72251 12.95 9.81641 12.95C10.0042 12.95 10.1881 12.9226 10.3681 12.8678C10.548 12.813 10.7085 12.7387 10.8493 12.6448C11.0058 12.5352 11.1427 12.41 11.2601 12.2692C11.3775 12.1283 11.4753 11.9718 11.5536 11.7997C11.6162 11.6275 11.6592 11.4475 11.6827 11.2597C11.7061 11.0719 11.6944 10.8841 11.6475 10.6963C11.6162 10.5242 11.5575 10.356 11.4714 10.1916C11.3853 10.0273 11.2797 9.87472 11.1545 9.73387C11.0136 9.60867 10.861 9.50303 10.6967 9.41695C10.5324 9.33088 10.3642 9.27219 10.192 9.24089C10.0042 9.19394 9.81641 9.1822 9.62861 9.20568C9.44081 9.22915 9.26083 9.27219 9.08868 9.33479C8.91653 9.41304 8.76003 9.51085 8.61918 9.62823C8.47833 9.74561 8.35313 9.88254 8.24358 10.039C8.14968 10.1799 8.07534 10.3403 8.02056 10.5203C7.96579 10.7003 7.9384 10.8841 7.9384 11.0719C7.9384 11.1658 7.91884 11.2597 7.87971 11.3536C7.84059 11.4475 7.78973 11.5336 7.72713 11.6119C7.64888 11.6745 7.5628 11.7253 7.4689 11.7645C7.375 11.8036 7.2811 11.8231 7.1872 11.8231C7.0933 11.8231 6.9994 11.8036 6.9055 11.7645C6.8116 11.7253 6.72552 11.6745 6.64727 11.6119C6.58467 11.5336 6.53381 11.4475 6.49469 11.3536C6.45556 11.2597 6.436 11.1658 6.436 11.0719C6.436 10.7589 6.47904 10.4499 6.56511 10.1447C6.65119 9.83951 6.7803 9.54607 6.95245 9.26437C7.1246 8.99832 7.32805 8.75965 7.5628 8.54838C7.79755 8.3371 8.0636 8.16104 8.36095 8.02019C8.64265 7.87934 8.94 7.78544 9.25301 7.73849C9.56601 7.69154 9.87901 7.68371 10.192 7.71501C10.505 7.74631 10.8102 7.82456 11.1075 7.94976C11.4049 8.07496 11.6788 8.23146 11.9292 8.41926C12.1796 8.62271 12.3948 8.85355 12.5747 9.11178C12.7547 9.37 12.8995 9.65562 13.009 9.96862C13.1186 10.266 13.1812 10.5711 13.1968 10.8841C13.2125 11.1971 13.1812 11.5101 13.1029 11.8231C13.0403 12.1361 12.9308 12.4335 12.7743 12.7152C12.6178 12.9969 12.43 13.2473 12.2109 13.4664C11.9761 13.6855 11.7218 13.8733 11.4479 14.0298C11.174 14.1863 10.8806 14.2959 10.5676 14.3585Z" fill="#2EBB77"/>
</g>
<defs>
<clipPath id="clip0_10313_408">
<rect width="25" height="25" fill="white" transform="matrix(1 0 0 -1 0.0507812 25.45)"/>
</clipPath>
</defs>
</svg>
